<svg width="174" height="30" viewBox="0 0 174 30" fill="none" xmlns="http://www.w3.org/2000/svg">
<path d="M3.89161 23.7704C3.60217 23.083 3.58182 22.4159 3.64739 21.7398C3.87578 19.4084 5.0358 17.6152 6.85837 16.211C7.85558 15.4422 8.85731 14.6847 9.85 13.9113C10.0445 13.7598 10.2073 13.5676 10.3723 13.3822C10.9806 12.6993 10.9874 11.9599 10.3814 11.2657C9.84548 10.6529 9.12866 10.3092 8.38923 10.0197C7.19077 9.54937 5.96517 9.14461 4.7848 8.63357C3.03007 7.87379 1.56478 6.67533 0.167332 5.39546C0.108539 5.34119 0.0746212 5.26205 0 5.15351C0.961031 5.002 1.86553 5.07889 2.72254 5.37737C4.18557 5.88615 5.64408 6.41755 7.06866 7.02808C9.23946 7.95972 11.4329 8.79186 13.7371 9.34134C14.7818 9.59008 15.8084 10.0084 16.4913 10.8767C16.8508 11.3312 17.1674 11.2883 17.631 11.2317C18.7616 11.0938 19.9012 11.0101 21.0387 10.94C21.2015 10.9287 21.4389 11.0554 21.5384 11.1956C22.2914 12.2493 23.2117 13.138 24.3559 13.7236C26.5041 14.8249 28.6862 15.8537 30.8593 16.903C31.6145 17.267 31.7999 17.6085 31.5354 18.2597C31.3907 18.617 31.1329 18.8951 30.7439 18.8318C30.1176 18.73 29.4663 18.626 28.8942 18.3728C28.0282 17.9884 27.2164 17.4796 26.3865 17.016C25.837 16.7107 25.638 16.7108 25.1722 17.1313C24.9235 17.3552 24.6974 17.6107 24.5006 17.8821C24.3288 18.1172 24.166 18.1534 23.9104 18.0336C23.5803 17.8776 23.2185 17.7848 22.8974 17.6152C21.5248 16.8917 20.098 16.9866 18.6576 17.3055C15.8287 17.9318 13.1989 19.0353 10.7477 20.5843C8.71033 21.8732 6.53501 22.8794 4.26472 23.6822C4.15618 23.7206 4.04085 23.7387 3.89387 23.7772L3.89161 23.7704Z" fill="#1B1444"/>
<path d="M38.2174 16.9821C37.8941 17.2421 37.6092 17.4253 37.3808 17.665C36.9014 18.167 36.8901 18.6577 37.4056 19.1167C37.7697 19.4423 38.2174 19.6775 38.6448 19.9217C38.9365 20.089 38.9976 20.2586 38.8302 20.5571C38.4888 21.1609 37.9664 21.5408 37.3491 21.8076C36.1959 22.3096 34.9658 22.3458 33.7334 22.4159C31.7141 22.5335 29.8599 21.9003 28.026 21.1993C27.2255 20.8918 26.4725 20.4576 25.7059 20.0642C25.5137 19.9647 25.3419 19.8177 25.1768 19.6752C24.3469 18.9584 24.3515 18.4836 25.1859 17.7441C25.8077 17.1924 25.9095 17.1766 26.6466 17.5474C27.5217 17.9883 28.3991 18.427 29.2697 18.8748C29.9141 19.2049 30.5699 19.3044 31.2596 19.0376C31.7163 18.8612 32.0216 18.4564 32.0307 17.968C32.042 17.4705 31.8317 17.1065 31.3726 16.8758C29.3692 15.8741 27.3612 14.8837 25.3781 13.848C23.5668 12.9005 22.2327 11.4963 21.6515 9.50188C20.643 6.03991 23.3678 4.05227 25.81 4.19021C27.0989 4.26257 28.3742 4.62211 29.6496 4.89346C30.2465 5.02009 30.8367 5.21229 31.4088 5.42711C33.3558 6.15523 34.5497 7.60695 35.2416 9.51319C35.4112 9.979 35.5198 10.4652 35.6622 10.9423C35.7504 11.234 35.6351 11.3923 35.3457 11.442C34.1495 11.6546 33.003 11.5099 31.956 10.8835C31.1149 10.3792 30.8865 9.47022 30.5292 8.63356C30.1945 7.84665 29.7445 7.10496 29.3307 6.35196C29.0843 5.90423 28.6659 5.91554 28.2634 6.05348C27.2843 6.3904 26.6647 7.10722 26.2984 8.0479C25.9931 8.83029 26.2894 9.48153 26.8207 10.0468C27.567 10.8405 28.5302 11.3222 29.4845 11.7993C31.5264 12.8191 33.5841 13.8096 35.6283 14.8249C36.6527 15.3336 37.4509 16.1183 38.2197 16.9844L38.2174 16.9821Z" fill="#1B1444"/>
<path d="M36.3587 10.5691C36.2773 10.3068 36.2004 10.0739 36.1303 9.83643C35.2168 6.73174 33.1432 4.88656 30.0023 4.21949C29.03 4.01146 28.0441 3.86447 27.0627 3.6881C26.9926 3.67453 26.927 3.64966 26.762 3.59991C27.8994 2.55295 28.9712 1.52408 29.5229 0C29.9458 0.327881 30.3302 0.590186 30.6717 0.897716C32.3947 2.44667 33.6633 4.33481 34.7261 6.37446C35.011 6.91942 35.262 7.48021 35.565 8.01387C35.66 8.1812 35.8567 8.35984 36.0353 8.39602C37.6431 8.71937 39.2531 9.02691 40.8699 9.30052C41.2181 9.35931 41.6025 9.30504 41.9508 9.22137C42.7354 9.03595 43.4455 9.28921 44.117 9.59448C44.8316 9.9201 45.5326 10.3113 46.1612 10.7794C47.4524 11.7381 48.7142 12.7421 49.942 13.7801C50.4847 14.2368 50.9596 14.7908 51.3892 15.3584C51.8392 15.9531 51.751 16.3081 51.1925 16.7649C51.6606 17.9114 51.6425 17.8639 50.4621 18.2822C49.5847 18.592 48.7684 19.0736 47.9024 19.4264C46.9323 19.8221 45.9374 20.1613 44.9198 20.4507C45.1097 20.2834 45.3246 20.1342 45.4874 19.9442C46.1115 19.2093 46.0549 18.1036 45.3607 17.19C44.7705 16.4121 43.9927 15.8785 43.1131 15.4828C42.8779 15.3765 42.6518 15.2476 42.4347 15.0599C42.7445 15.0463 43.0588 15.0599 43.3618 15.0124C44.0763 14.8971 44.2052 14.6642 44.0492 13.9723C43.5359 11.7133 42.0231 10.6166 39.8229 10.3045C39.4182 10.248 39.0134 10.1666 38.6177 10.0693C37.9257 9.89975 37.322 10.1575 36.716 10.4266C36.612 10.4718 36.5034 10.5103 36.361 10.5668L36.3587 10.5691ZM47.9227 13.7959C47.5248 13.7823 47.2421 13.9994 47.2421 14.316C47.2421 14.6732 47.6672 15.0215 48.1104 15.0328C48.479 15.0418 48.8024 14.7931 48.8024 14.5036C48.8024 14.1577 48.3682 13.8094 47.9227 13.7959Z" fill="#1B1444"/>
<path d="M22.3682 29.9119C22.531 28.874 22.6757 27.8338 22.8611 26.8004C23.1302 25.2967 23.5056 23.8224 24.3671 22.5267C24.5593 22.2372 24.7809 21.9546 25.041 21.7262C25.552 21.2785 26.0811 21.093 26.7912 21.4413C28.4125 22.2372 30.1288 22.7822 31.9197 23.0694C32.0033 23.0829 32.0825 23.1236 32.2204 23.1734C31.7817 24.4894 31.5262 25.853 30.5494 27.0288C30.1514 26.156 30.0225 25.3555 30.1469 24.4329C28.01 26.9293 25.3485 28.5846 22.5151 30.0001C22.4654 29.9707 22.4179 29.9413 22.3682 29.9119Z" fill="#1B1444"/>
<path d="M43.3459 14.3115C42.3012 14.6077 41.3967 14.1441 41.0032 13.1627C40.8042 12.6653 40.5419 12.1904 40.2887 11.7155C40.0987 11.3583 39.7641 11.347 39.4475 11.4804C38.8234 11.7404 38.4254 12.2175 38.3259 12.8937C38.2626 13.321 38.4593 13.6896 38.8143 13.909C39.608 14.3974 40.4176 14.8632 41.2361 15.3109C42.1225 15.7948 43.0361 16.2267 43.9157 16.7197C44.5353 17.0679 44.9604 17.6016 45.1662 18.298C45.3855 19.042 45.1413 19.6028 44.4245 19.9013C43.5358 20.2676 42.5884 20.349 41.659 20.202C40.4877 20.0166 39.3502 19.6661 38.3282 19.0284C38.2422 18.9742 38.1563 18.9176 38.0772 18.8521C37.8646 18.6712 37.6159 18.5038 37.8284 18.1646C38.0455 17.8164 38.3033 17.7327 38.6764 17.9068C39.2327 18.1669 39.7708 18.4722 40.3497 18.6689C40.6392 18.7684 41.0258 18.739 41.3153 18.6282C41.5075 18.5558 41.6793 18.2506 41.7268 18.0222C41.7856 17.7373 41.668 17.4636 41.3492 17.3076C40.3497 16.8192 39.3638 16.3036 38.3689 15.8107C37.6588 15.4602 37.0845 14.9604 36.6051 14.3296C36.2207 13.8253 36.0782 13.2509 36.0443 12.6517C35.981 11.5618 37.1048 10.594 38.301 10.75C39.1987 10.8676 40.0987 11.0259 40.9648 11.2814C42.3306 11.6839 43.0519 12.7128 43.364 14.0605C43.373 14.1034 43.3753 14.1487 43.373 14.1916C43.3708 14.2346 43.3549 14.2753 43.3459 14.316V14.3115Z" fill="#1B1444"/>
<path d="M35.3387 12.3102C35.4065 12.8212 35.4789 13.3526 35.5535 13.9157C35.4789 13.8953 35.3816 13.8885 35.3002 13.8478C33.1769 12.8009 31.0468 11.7629 28.9348 10.6911C28.4441 10.4424 27.9874 10.1077 27.56 9.75948C26.8092 9.14442 26.7391 8.5384 27.2683 7.72209C27.3565 7.58868 27.4514 7.45752 27.5622 7.33994C28.3446 6.51458 28.8421 6.59147 29.3011 7.62938C29.5657 8.23087 29.8054 8.84367 30.0338 9.45873C30.5923 10.9602 31.6574 11.867 33.2289 12.1338C33.9141 12.2491 34.6173 12.2536 35.3409 12.3124L35.3387 12.3102Z" fill="#1B1444"/>
<path d="M40.8812 14.4608C40.2819 14.0787 39.7415 13.7711 39.2508 13.398C39.1106 13.2917 39.0066 12.9571 39.0677 12.801C39.1672 12.5523 39.4136 12.3578 39.6171 12.1611C39.6398 12.1408 39.8274 12.2312 39.8749 12.3081C40.0061 12.5161 40.1101 12.7445 40.2119 12.9684C40.4199 13.4251 40.6211 13.8842 40.8789 14.4608H40.8812Z" fill="#1B1444"/>
<path d="M42.5114 21.0478C41.4373 21.2016 40.3428 21.3576 39.124 21.5317C39.3321 21.1518 39.4429 20.8647 39.6305 20.6385C39.7165 20.5345 39.9584 20.4893 40.1099 20.5187C40.9081 20.677 41.7018 20.8669 42.5136 21.0501L42.5114 21.0478Z" fill="#1B1444"/>
<path d="M20.6159 7.60217C20.7312 8.42301 20.842 9.2054 20.9505 9.98779C20.2247 10.0647 19.9805 9.84985 20.0506 9.12399C20.1026 8.57677 20.2247 8.0499 20.6159 7.60217Z" fill="#1B1444"/>
<path d="M41.114 17.9363C40.4537 18.2326 39.3706 17.6514 39.1648 16.955C39.816 17.2828 40.4153 17.5836 41.114 17.9363Z" fill="#1B1444"/>
<path d="M97.9174 24.8805C97.6832 24.0597 97.7468 23.9267 98.455 23.655C99.3308 23.3226 99.7412 22.7706 99.7441 21.8196C99.7557 18.8425 99.7557 15.8625 99.7412 12.8854C99.7412 12.4778 99.669 12.0587 99.5476 11.6714C99.2845 10.8332 98.7122 10.3043 97.8162 10.2031C96.4144 10.0441 95.2466 10.5673 94.2581 11.524C94.1338 11.6454 94.0731 11.8882 94.0731 12.0761C94.0645 15.4492 94.0645 18.8194 94.0731 22.1925C94.0731 22.9237 94.4691 23.4036 95.2351 23.6579C96.0762 23.9383 96.0964 23.973 95.9143 24.9181H87.2171V23.866C87.7229 23.6955 88.2143 23.577 88.6623 23.366C89.2317 23.0972 89.5294 22.6 89.5294 21.9641C89.5352 18.4234 89.5381 14.8827 89.5294 11.3419C89.5294 10.5673 89.1537 10.1164 88.4022 9.94874C88.0409 9.86781 87.6651 9.86492 87.2055 9.81867C87.2055 9.56721 87.1824 9.27239 87.2171 8.98624C87.2316 8.8764 87.3558 8.71454 87.457 8.68853C89.5323 8.19427 91.6105 7.71446 93.6887 7.23466C93.7205 7.22888 93.7581 7.252 93.8564 7.2809V9.89093C94.0992 9.7204 94.2437 9.62213 94.3853 9.51807C95.6629 8.5758 97.0242 7.81563 98.6168 7.54104C100.519 7.21442 101.978 7.9428 103.158 9.37933C103.299 9.55276 103.432 9.73196 103.6 9.94874C104.068 9.62502 104.513 9.29262 104.984 8.99491C106.641 7.95147 108.404 7.33871 110.407 7.52947C112.69 7.74914 114.231 9.37355 114.237 11.6541C114.242 14.952 114.237 18.2471 114.242 21.545C114.242 22.7734 114.737 23.4989 115.716 23.7042C116.058 23.7764 116.422 23.7533 116.786 23.7764C116.806 23.8573 116.835 23.9267 116.844 23.9961C116.933 24.921 116.904 24.9528 115.997 24.9528C113.523 24.9528 111.048 24.9528 108.577 24.9499C108.311 24.9499 107.959 25.0366 107.993 24.5771C108.019 24.2302 107.782 23.7649 108.45 23.7013C108.768 23.6695 109.083 23.4845 109.378 23.3284C109.811 23.0972 109.979 22.7359 109.976 22.2214C109.956 19.1691 109.967 16.114 109.962 13.0617C109.962 12.764 109.95 12.4605 109.907 12.1657C109.742 10.9691 108.936 10.2638 107.727 10.2551C106.568 10.2465 105.505 10.5788 104.571 11.2581C104.369 11.4055 104.187 11.7321 104.184 11.9807C104.158 15.3885 104.161 18.7991 104.169 22.2098C104.169 23.0076 104.707 23.6088 105.629 23.707C106.274 23.7764 106.126 24.1637 106.138 24.5366C106.155 24.9962 105.814 24.9095 105.551 24.9095C103.172 24.9152 100.79 24.9123 98.4116 24.9095C98.2469 24.9095 98.0792 24.8921 97.926 24.8805H97.9174Z" fill="#1B1444"/>
<path d="M144.831 25.4268C144.866 24.736 144.872 24.1955 144.93 23.6637C144.947 23.5018 145.08 23.3169 145.21 23.2099C146.722 21.9699 147.413 20.2906 147.661 18.4292C147.979 16.0562 147.806 13.7149 146.794 11.5009C146.467 10.787 146.019 10.1511 145.178 9.77533C145.12 10.5384 145.057 11.2205 145.019 11.9027C144.779 16.2961 144.542 20.6895 144.311 25.0829C144.294 25.3979 144.32 25.6725 143.846 25.6436C143.435 25.6205 143.213 25.5743 143.184 25.0684C142.898 20.1721 142.586 15.2758 142.276 10.3794C142.265 10.2176 142.224 10.0586 142.19 9.84759C141.14 10.2118 140.6 11.0066 140.322 11.9258C139.34 15.1544 139.374 18.3598 140.903 21.4323C141.244 22.1202 141.831 22.6867 142.299 23.3111C142.398 23.4411 142.534 23.577 142.554 23.7215C142.617 24.2389 142.638 24.7592 142.678 25.3286C142.536 25.3286 142.444 25.3488 142.366 25.3257C139.949 24.5915 137.779 23.4556 136.29 21.3369C135.166 19.7356 134.842 17.8945 134.998 15.9839C135.241 13.0502 136.406 10.5991 138.973 8.98625C139.646 8.56136 140.418 8.29255 141.152 7.97172C141.707 7.72893 142.279 7.51504 142.84 7.2867C143.536 7.00633 144.204 6.9225 144.843 7.45723C145.016 7.60175 145.279 7.65956 145.511 7.7058C148.774 8.36192 150.846 10.3968 151.945 13.4346C153.751 18.4321 151.17 22.8515 146.482 24.8632C145.979 25.08 145.444 25.2216 144.831 25.4268Z" fill="#1B1444"/>
<path d="M162.813 24.9209C162.642 24.9325 162.46 24.9556 162.278 24.9556C159.694 24.9556 157.107 24.9614 154.523 24.9556C154.295 24.9556 153.919 25.0828 153.956 24.6434C153.985 24.2908 153.696 23.7705 154.367 23.6723C154.532 23.6463 154.693 23.5856 154.855 23.5393C156.113 23.1722 156.35 22.863 156.35 21.5796C156.35 18.3019 156.35 15.0242 156.35 11.7494C156.35 10.3389 155.841 9.82725 154.43 9.80991C154.321 9.80991 154.208 9.79835 154.104 9.79257C153.881 8.93701 153.956 8.77804 154.737 8.59594C156.523 8.18262 158.312 7.78085 160.101 7.3762C160.24 7.3444 160.388 7.35308 160.596 7.33862V9.98334C160.989 9.66539 161.292 9.4226 161.593 9.17692C163.206 7.86757 164.998 7.20855 167.114 7.54384C169.056 7.85311 170.602 9.33011 170.854 11.2725C170.94 11.9373 170.966 12.6136 170.969 13.2871C170.981 16.0387 170.975 18.7933 170.975 21.5449C170.975 22.782 171.657 23.5595 172.897 23.7359C173.403 23.8081 173.689 24.3197 173.435 24.7475C173.38 24.8429 173.189 24.9007 173.062 24.9007C170.328 24.9094 167.593 24.9123 164.856 24.9065C164.382 24.9065 164.316 24.6955 164.501 23.8948C166.46 23.6896 166.634 22.9179 166.611 21.2935C166.57 18.4291 166.599 15.5647 166.599 12.6974C166.599 10.6973 165.382 9.71164 163.492 10.3215C162.622 10.6019 161.833 11.1511 161.041 11.6309C160.867 11.7349 160.737 12.0586 160.737 12.2812C160.717 15.5763 160.732 18.8742 160.717 22.1693C160.714 22.8485 161.101 23.1838 161.633 23.4439C161.784 23.5162 161.945 23.5653 162.107 23.6202C162.695 23.8168 162.931 24.2513 162.815 24.9238L162.813 24.9209Z" fill="#1B1444"/>
<path d="M72.7939 7.50923V13.2525H71.6233C71.1811 12.3478 70.8487 11.4402 70.3284 10.6598C69.3861 9.24058 67.7849 8.76077 66.3512 9.34174C64.8973 9.92849 64.5649 11.2928 65.6286 12.4374C66.568 13.4519 67.8051 14.0069 69.048 14.5329C70.4209 15.111 71.7274 15.7989 72.765 16.8886C74.1437 18.3367 74.3952 20.0189 73.7593 21.8832C73.1003 23.814 71.736 24.8834 69.759 25.2158C68.0363 25.5049 66.3657 25.1667 64.7066 24.7562C64.5071 24.7071 64.2961 24.6724 64.114 24.5828C63.6169 24.3371 63.3336 24.4932 62.9839 24.9152C62.8047 25.1291 62.2815 25.0944 61.9116 25.0886C61.8306 25.0886 61.689 24.7389 61.689 24.5481C61.6717 22.7734 61.6774 20.9958 61.6774 19.1344C62.1023 19.1344 62.4954 19.0911 62.8683 19.1575C63.007 19.1836 63.1544 19.4553 63.1978 19.6373C63.6285 21.4438 64.6892 22.7098 66.4032 23.4151C67.2617 23.7677 68.1375 23.8429 69.0335 23.5278C70.3515 23.0654 70.9123 21.5479 70.0827 20.4293C69.6694 19.8744 69.1087 19.3743 68.5161 19.0159C67.0912 18.1575 65.5968 17.4175 64.1516 16.5909C62.1919 15.4694 61.3219 13.4866 61.8133 11.3535C62.2758 9.34463 64.0505 7.91677 66.2558 7.77803C67.7617 7.68265 69.2503 7.78671 70.7099 8.19136C71.1204 8.30409 71.4296 8.27229 71.6175 7.81561C71.8603 7.22308 72.3575 7.63641 72.791 7.50923H72.7939Z" fill="#1B1444"/>
<path d="M120.67 19.1288C120.769 19.4786 120.844 19.7879 120.939 20.0885C121.581 22.0915 122.957 23.2881 125 23.6841C126.5 23.976 127.795 23.1754 128.038 21.8921C128.183 21.1174 127.905 20.4353 127.33 19.9844C126.451 19.2965 125.506 18.6866 124.549 18.1114C123.639 17.5622 122.662 17.1171 121.74 16.5882C119.821 15.4841 118.913 13.4376 119.407 11.3912C119.893 9.36796 121.607 7.94878 123.775 7.78981C125.298 7.67708 126.807 7.78113 128.287 8.18868C128.723 8.31008 129.058 8.27828 129.235 7.79558C129.417 7.29844 129.842 7.55857 130.154 7.55279C130.241 7.55279 130.408 7.87073 130.408 8.04416C130.428 9.76395 130.42 11.4837 130.42 13.2931C130.018 13.2931 129.665 13.3249 129.324 13.2758C129.2 13.2584 129.047 13.0648 129.003 12.9232C128.714 11.9867 128.362 11.0878 127.706 10.3334C126.596 9.06158 124.873 8.73497 123.552 9.54428C122.532 10.1715 122.309 11.2207 123.026 12.1832C123.708 13.0995 124.7 13.5966 125.685 14.1024C126.914 14.7325 128.174 15.3135 129.347 16.0332C130.371 16.6576 131.131 17.5738 131.498 18.7502C132.411 21.6666 130.434 24.716 127.298 25.2247C125.596 25.4993 123.942 25.164 122.301 24.7565C122.064 24.6986 121.821 24.6495 121.601 24.5483C121.182 24.3547 120.879 24.453 120.668 24.8518C120.399 25.3577 119.936 25.1033 119.563 25.0917C119.474 25.0917 119.329 24.6929 119.326 24.4732C119.292 22.9211 119.306 21.366 119.257 19.811C119.24 19.2791 119.378 19.0421 119.936 19.1231C120.173 19.1577 120.416 19.1288 120.668 19.1288H120.67Z" fill="#1B1444"/>
<path d="M76.1959 9.93719C76.1959 9.6308 76.2104 9.3909 76.193 9.15389C76.1699 8.83595 76.2855 8.69721 76.615 8.63362C78.3782 8.28677 80.1326 7.9168 81.8929 7.55261C82.2715 7.47457 82.6502 7.40231 83.1155 7.30981C83.1155 7.69713 83.1155 8.00929 83.1155 8.32145C83.1155 12.7785 83.1155 17.2326 83.1155 21.6896C83.1155 23.0914 83.5867 23.6261 85.003 23.7678C85.3469 23.8024 85.4857 23.8978 85.5088 24.2649C85.5435 24.7938 85.3845 24.9788 84.8267 24.973C82.1675 24.9441 79.5083 24.9615 76.8492 24.9586C76.5601 24.9586 76.2075 25.0395 76.2277 24.5539C76.2451 24.1869 76.0861 23.7533 76.7306 23.7071C77.0891 23.681 77.4475 23.5076 77.7856 23.3544C78.3088 23.1174 78.5516 22.7128 78.5487 22.1087C78.5314 18.5882 78.5429 15.0705 78.5429 11.55C78.5429 10.2233 77.9562 9.70884 76.6468 9.89094C76.537 9.90539 76.4272 9.91407 76.1988 9.94008L76.1959 9.93719Z" fill="#1B1444"/>
<path d="M80.7887 5.00039C79.4042 5.00328 78.2682 3.90205 78.2538 2.53778C78.2393 1.15038 79.3868 -0.00288498 80.78 5.4213e-06C82.1587 5.4213e-06 83.2658 1.11281 83.2715 2.49731C83.2773 3.87892 82.1703 4.99461 80.7916 5.00039H80.7887Z" fill="#1B1444"/>
<path d="M145.487 28.248C145.467 29.2539 144.681 30.0227 143.695 29.9996C142.701 29.9765 141.926 29.1787 141.935 28.1931C141.944 27.1785 142.747 26.4097 143.782 26.427C144.785 26.4444 145.511 27.219 145.487 28.2509V28.248Z" fill="#1B1444"/>
</svg>
