<svg width="116" height="32" viewBox="0 0 116 32" fill="none" xmlns="http://www.w3.org/2000/svg">
<g id="simson">
<path id="Vector" d="M37.5703 26.4601C37.3284 25.6119 37.3941 25.4745 38.1259 25.1937C39.0309 24.8503 39.455 24.2798 39.458 23.2971C39.4699 20.2208 39.4699 17.1415 39.455 14.0651C39.455 13.644 39.3803 13.2109 39.2549 12.8107C38.9831 11.9445 38.3917 11.3979 37.4658 11.2934C36.0172 11.1291 34.8106 11.6697 33.7891 12.6583C33.6607 12.7838 33.598 13.0347 33.598 13.2288C33.589 16.7144 33.589 20.1969 33.598 23.6824C33.598 24.4381 34.0071 24.9339 34.7986 25.1967C35.6678 25.4864 35.6887 25.5223 35.5005 26.4989H26.5134V25.4118C27.0361 25.2355 27.5438 25.1131 28.0068 24.8951C28.5952 24.6173 28.9028 24.1036 28.9028 23.4465C28.9088 19.7877 28.9118 16.1289 28.9028 12.4702C28.9028 11.6697 28.5145 11.2038 27.738 11.0306C27.3646 10.9469 26.9763 10.944 26.5015 10.8962C26.5015 10.6363 26.4776 10.3317 26.5134 10.036C26.5283 9.92249 26.6568 9.75523 26.7613 9.72835C28.9058 9.21762 31.0533 8.72182 33.2007 8.22602C33.2336 8.22005 33.2724 8.24394 33.374 8.2738V10.9708C33.6248 10.7946 33.7742 10.6931 33.9205 10.5855C35.2407 9.61187 36.6474 8.82635 38.2931 8.54261C40.2584 8.20511 41.7667 8.95777 42.9853 10.4422C43.1317 10.6214 43.269 10.8066 43.4423 11.0306C43.9261 10.6961 44.3861 10.3526 44.8729 10.0449C46.5843 8.96673 48.4063 8.33354 50.4761 8.53066C52.8356 8.75766 54.4275 10.4362 54.4335 12.7928C54.4395 16.2006 54.4335 19.6055 54.4395 23.0134C54.4395 24.2828 54.9502 25.0324 55.9627 25.2445C56.3152 25.3192 56.6915 25.2953 57.0678 25.3192C57.0887 25.4028 57.1186 25.4745 57.1276 25.5462C57.2201 26.5019 57.1903 26.5348 56.2524 26.5348C53.6958 26.5348 51.1391 26.5348 48.5855 26.5318C48.3107 26.5318 47.9463 26.6214 47.9821 26.1465C48.009 25.7881 47.7641 25.3072 48.454 25.2415C48.7826 25.2087 49.1081 25.0175 49.4128 24.8562C49.8608 24.6173 50.034 24.2439 50.031 23.7123C50.0101 20.5583 50.0221 17.4013 50.0161 14.2473C50.0161 13.9397 50.0042 13.6261 49.9594 13.3214C49.7891 12.0849 48.9558 11.3561 47.7074 11.3472C46.5097 11.3382 45.4105 11.6817 44.4458 12.3836C44.2368 12.5359 44.0486 12.8734 44.0456 13.1303C44.0187 16.6516 44.0217 20.176 44.0307 23.7004C44.0307 24.5247 44.5862 25.1459 45.539 25.2475C46.205 25.3192 46.0527 25.7194 46.0646 26.1047C46.0826 26.5796 45.7301 26.49 45.4583 26.49C43.0002 26.4959 40.5392 26.493 38.0811 26.49C37.9108 26.49 37.7376 26.4721 37.5793 26.4601H37.5703Z" fill="#D00000"/>
<path id="Vector_2" d="M86.0483 27.0242C86.0841 26.3104 86.0901 25.7519 86.1499 25.2023C86.1678 25.0351 86.3052 24.8439 86.4396 24.7334C88.0016 23.4521 88.7155 21.7168 88.9723 19.7933C89.3009 17.3412 89.1217 14.9219 88.0763 12.6341C87.7388 11.8964 87.2759 11.2393 86.4067 10.851C86.347 11.6395 86.2813 12.3444 86.2424 13.0493C85.9945 17.5891 85.7496 22.129 85.5107 26.6688C85.4928 26.9944 85.5197 27.2781 85.0298 27.2482C84.6057 27.2244 84.3757 27.1766 84.3459 26.6539C84.0502 21.5943 83.7276 16.5348 83.408 11.4752C83.3961 11.308 83.3543 11.1437 83.3184 10.9257C82.2342 11.302 81.6757 12.1234 81.389 13.0732C80.3735 16.4093 80.4093 19.7217 81.9893 22.8966C82.3418 23.6074 82.9481 24.1928 83.4319 24.8379C83.5335 24.9724 83.6738 25.1127 83.6947 25.2621C83.7605 25.7967 83.7814 26.3343 83.8232 26.9227C83.6768 26.9227 83.5813 26.9436 83.5006 26.9197C81.0037 26.1611 78.7606 24.9873 77.2225 22.798C76.0606 21.1433 75.7261 19.2408 75.8874 17.2665C76.1383 14.235 77.3419 11.7022 79.9942 10.0356C80.6901 9.59658 81.4875 9.31881 82.2462 8.98728C82.8196 8.73639 83.411 8.51538 83.9904 8.27942C84.7102 7.98971 85.4002 7.90309 86.0603 8.45564C86.2395 8.60498 86.5113 8.66471 86.7502 8.7125C90.1222 9.39049 92.2637 11.4932 93.3987 14.6322C95.2654 19.7963 92.5982 24.3631 87.7537 26.4418C87.234 26.6658 86.6815 26.8122 86.0483 27.0242Z" fill="#D00000"/>
<path id="Vector_3" d="M104.629 26.5014C104.453 26.5133 104.264 26.5372 104.076 26.5372C101.406 26.5372 98.733 26.5432 96.0629 26.5372C95.8269 26.5372 95.4386 26.6686 95.4775 26.2147C95.5073 25.8503 95.2086 25.3127 95.9016 25.2111C96.0718 25.1842 96.2391 25.1215 96.4063 25.0737C97.7056 24.6944 97.9505 24.3748 97.9505 23.0487C97.9505 19.6617 97.9505 16.2748 97.9505 12.8908C97.9505 11.4332 97.4248 10.9046 95.9673 10.8867C95.8538 10.8867 95.7373 10.8747 95.6298 10.8688C95.3998 9.98468 95.4774 9.82041 96.2839 9.63224C98.1297 9.20514 99.9785 8.78998 101.827 8.37183C101.971 8.33898 102.123 8.34794 102.338 8.33301V11.0659C102.744 10.7373 103.058 10.4865 103.368 10.2326C105.035 8.87958 106.887 8.1986 109.073 8.54506C111.08 8.86465 112.678 10.3909 112.938 12.398C113.028 13.0849 113.054 13.7838 113.057 14.4797C113.069 17.3231 113.063 20.1695 113.063 23.0129C113.063 24.2912 113.768 25.0946 115.05 25.2768C115.572 25.3515 115.868 25.8801 115.605 26.3222C115.548 26.4207 115.351 26.4805 115.22 26.4805C112.394 26.4894 109.569 26.4924 106.74 26.4865C106.251 26.4865 106.182 26.2684 106.373 25.4411C108.398 25.229 108.577 24.4316 108.553 22.753C108.512 19.7932 108.541 16.8333 108.541 13.8704C108.541 11.8036 107.284 10.7851 105.331 11.4153C104.432 11.705 103.616 12.2725 102.798 12.7683C102.619 12.8758 102.484 13.2104 102.484 13.4403C102.463 16.8452 102.478 20.2531 102.463 23.658C102.46 24.3599 102.861 24.7064 103.41 24.9752C103.566 25.0498 103.733 25.1006 103.9 25.1574C104.507 25.3604 104.751 25.8095 104.632 26.5044L104.629 26.5014Z" fill="#D00000"/>
<path id="Vector_4" d="M11.6096 8.50952V14.4442H10.3999C9.94296 13.5093 9.59949 12.5715 9.06187 11.7651C8.08819 10.2986 6.43353 9.80278 4.95211 10.4031C3.44977 11.0094 3.1063 12.4192 4.20542 13.6019C5.17611 14.6503 6.45444 15.2237 7.73874 15.7673C9.15745 16.3647 10.5075 17.0755 11.5797 18.2015C13.0044 19.6979 13.2642 21.4362 12.6071 23.3626C11.9262 25.3578 10.5164 26.4629 8.47348 26.8063C6.69338 27.105 4.96704 26.7556 3.25265 26.3314C3.04656 26.2807 2.82853 26.2448 2.64037 26.1522C2.12665 25.8984 1.83394 26.0596 1.47255 26.4957C1.28737 26.7167 0.746768 26.6809 0.364464 26.6749C0.280835 26.6749 0.134485 26.3135 0.134485 26.1164C0.116564 24.2825 0.122538 22.4457 0.122538 20.5222C0.56159 20.5222 0.967787 20.4774 1.35308 20.5461C1.49644 20.573 1.64877 20.8537 1.69357 21.0419C2.13859 22.9086 3.23473 24.2168 5.00587 24.9456C5.89293 25.31 6.79792 25.3876 7.72381 25.0621C9.08577 24.5842 9.66519 23.0161 8.808 21.8603C8.38089 21.2868 7.80146 20.7701 7.18918 20.3998C5.71672 19.5127 4.17257 18.7481 2.67919 17.8939C0.654179 16.735 -0.244832 14.6861 0.262915 12.4819C0.740794 10.4061 2.57466 8.93065 4.85355 8.78729C6.40964 8.68872 7.94781 8.79625 9.45612 9.21439C9.88024 9.33088 10.1998 9.29802 10.394 8.82612C10.6448 8.21383 11.1586 8.64094 11.6066 8.50952H11.6096Z" fill="#D00000"/>
<path id="Vector_5" d="M60.962 20.0269C61.0635 20.3883 61.1412 20.7079 61.2397 21.0185C61.9028 23.0884 63.3245 24.3249 65.4361 24.7341C66.9862 25.0357 68.3243 24.2084 68.5752 22.8823C68.7245 22.0818 68.4378 21.377 67.8434 20.911C66.9355 20.2002 65.9588 19.57 64.9702 18.9756C64.0294 18.4081 63.0198 17.9482 62.0671 17.4016C60.0839 16.2607 59.146 14.146 59.6568 12.0314C60.1585 9.9407 61.9297 8.47421 64.1697 8.30994C65.7437 8.19345 67.3028 8.30097 68.832 8.7221C69.283 8.84755 69.6295 8.81469 69.8117 8.31591C69.9999 7.80219 70.4389 8.07099 70.7615 8.06502C70.8511 8.06502 71.0243 8.39356 71.0243 8.57277C71.0452 10.3499 71.0363 12.127 71.0363 13.9967C70.6211 13.9967 70.2567 14.0296 69.9043 13.9788C69.7759 13.9609 69.6176 13.7607 69.5728 13.6144C69.2741 12.6467 68.9097 11.7178 68.2317 10.9383C67.0848 9.62411 65.3047 9.2866 63.9398 10.1229C62.8854 10.771 62.6555 11.8552 63.3962 12.8498C64.101 13.7966 65.1255 14.3103 66.144 14.833C67.4133 15.4841 68.7156 16.0844 69.9282 16.8281C70.9855 17.4733 71.771 18.4201 72.1503 19.6357C73.0941 22.6493 71.0512 25.8003 67.8106 26.326C66.0514 26.6097 64.343 26.2633 62.6465 25.8421C62.4016 25.7824 62.1507 25.7316 61.9237 25.6271C61.4906 25.427 61.177 25.5285 60.959 25.9407C60.6812 26.4634 60.2033 26.2006 59.818 26.1886C59.7255 26.1886 59.5761 25.7764 59.5731 25.5494C59.5373 23.9456 59.5522 22.3387 59.5014 20.7318C59.4835 20.1823 59.6269 19.9373 60.2033 20.021C60.4482 20.0568 60.6991 20.0269 60.959 20.0269H60.962Z" fill="#D00000"/>
<path id="Vector_6" d="M15.1251 11.0187C15.1251 10.7021 15.14 10.4542 15.1221 10.2093C15.0982 9.88071 15.2177 9.73735 15.5581 9.67164C17.3801 9.31323 19.193 8.93093 21.0119 8.5546C21.4032 8.47395 21.7945 8.39929 22.2753 8.30371C22.2753 8.70393 22.2753 9.0265 22.2753 9.34907C22.2753 13.9546 22.2753 18.5572 22.2753 23.1628C22.2753 24.6113 22.7622 25.1639 24.2257 25.3102C24.5811 25.3461 24.7245 25.4447 24.7484 25.824C24.7842 26.3705 24.6199 26.5617 24.0435 26.5557C21.2957 26.5259 18.5479 26.5438 15.8001 26.5408C15.5014 26.5408 15.137 26.6244 15.1579 26.1226C15.1758 25.7433 15.0116 25.2953 15.6776 25.2475C16.048 25.2206 16.4183 25.0414 16.7678 24.8831C17.3084 24.6382 17.5593 24.2201 17.5563 23.5959C17.5384 19.958 17.5503 16.3231 17.5503 12.6853C17.5503 11.3144 16.944 10.7827 15.591 10.9709C15.4775 10.9858 15.364 10.9948 15.1281 11.0217L15.1251 11.0187Z" fill="#D00000"/>
<path id="Vector_7" d="M19.871 5.91707C18.4403 5.92006 17.2665 4.78211 17.2516 3.37237C17.2367 1.93873 18.4224 0.747019 19.862 0.750006C21.2867 0.750006 22.4306 1.8999 22.4366 3.33055C22.4426 4.75822 21.2986 5.9111 19.874 5.91707H19.871Z" fill="#D00000"/>
<path id="Vector_8" d="M86.7262 29.9396C86.7053 30.979 85.8929 31.7734 84.8744 31.7495C83.847 31.7256 83.0465 30.9013 83.0555 29.8828C83.0645 28.8345 83.8948 28.04 84.964 28.0579C86.0004 28.0758 86.7501 28.8763 86.7262 29.9426V29.9396Z" fill="#D00000"/>
</g>
</svg>
